<svg xmlns="http://www.w3.org/2000/svg" xmlns:xlink="http://www.w3.org/1999/xlink" xmlns:lucid="lucid" width="2565" height="1148"><g transform="translate(2824.999986755647 1260)" lucid:page-tab-id="0_0"><path d="M-2780-814a6 6 0 0 1 6-6h428a6 6 0 0 1 6 6v487a6 6 0 0 1-6 6h-428a6 6 0 0 1-6-6z" fill="#bb86fc"/><path d="M-2780-814a6 6 0 0 1 6-6h428a6 6 0 0 1 6 6v487a6 6 0 0 1-6 6h-428a6 6 0 0 1-6-6zM-2780-773h440" stroke="#9e66e4" stroke-width="2" fill="none"/><use xlink:href="#a" transform="matrix(1,0,0,1,-2770,-820) translate(154.82098765432102 29.72222222222222)"/><use xlink:href="#b" transform="matrix(1,0,0,1,-2775,-770.5) translate(0 27.22222222222222)"/><use xlink:href="#c" transform="matrix(1,0,0,1,-2775,-770.5) translate(17.283950617283946 27.22222222222222)"/><use xlink:href="#d" transform="matrix(1,0,0,1,-2775,-770.5) translate(93.33333333333331 27.22222222222222)"/><use xlink:href="#e" transform="matrix(1,0,0,1,-2775,-770.5) translate(342.13580246913574 27.22222222222222)"/><use xlink:href="#f" transform="matrix(1,0,0,1,-2775,-723.5) translate(0 27.22222222222222)"/><use xlink:href="#g" transform="matrix(1,0,0,1,-2775,-723.5) translate(77.77777777777776 27.22222222222222)"/><use xlink:href="#h" transform="matrix(1,0,0,1,-2775,-723.5) translate(250.53086419753083 27.22222222222222)"/><use xlink:href="#i" transform="matrix(1,0,0,1,-2775,-676.5) translate(0 27.22222222222222)"/><use xlink:href="#j" transform="matrix(1,0,0,1,-2775,-676.5) translate(69.13580246913578 27.22222222222222)"/><use xlink:href="#k" transform="matrix(1,0,0,1,-2775,-676.5) translate(328.2222222222222 27.22222222222222)"/><use xlink:href="#i" transform="matrix(1,0,0,1,-2775,-629.5) translate(0 27.22222222222222)"/><use xlink:href="#l" transform="matrix(1,0,0,1,-2775,-629.5) translate(69.13580246913578 27.22222222222222)"/><use xlink:href="#e" transform="matrix(1,0,0,1,-2775,-629.5) translate(333.40740740740733 27.22222222222222)"/><use xlink:href="#i" transform="matrix(1,0,0,1,-2775,-582.5) translate(0 27.22222222222222)"/><use xlink:href="#m" transform="matrix(1,0,0,1,-2775,-582.5) translate(69.13580246913578 27.22222222222222)"/><use xlink:href="#n" transform="matrix(1,0,0,1,-2775,-582.5) translate(295.46913580246905 27.22222222222222)"/><use xlink:href="#i" transform="matrix(1,0,0,1,-2775,-535.5) translate(0 27.22222222222222)"/><use xlink:href="#o" transform="matrix(1,0,0,1,-2775,-535.5) translate(69.13580246913578 27.22222222222222)"/><use xlink:href="#p" transform="matrix(1,0,0,1,-2775,-535.5) translate(295.3827160493827 27.22222222222222)"/><use xlink:href="#q" transform="matrix(1,0,0,1,-2775,-488.5) translate(85.58641975308646 27.55555555555556)"/><use xlink:href="#r" transform="matrix(1,0,0,1,-2775,-488.5) translate(111.51234567901238 27.55555555555556)"/><use xlink:href="#s" transform="matrix(1,0,0,1,-2775,-488.5) translate(168.462962962963 27.55555555555556)"/><use xlink:href="#t" transform="matrix(1,0,0,1,-2775,-488.5) translate(334.1296296296296 27.55555555555556)"/><use xlink:href="#u" transform="matrix(1,0,0,1,-2775,-488.5) translate(62.29629629629633 64.88888888888889)"/><use xlink:href="#v" transform="matrix(1,0,0,1,-2775,-488.5) translate(217.679012345679 64.88888888888889)"/><use xlink:href="#w" transform="matrix(1,0,0,1,-2775,-403.5) translate(39.913580246913625 27.55555555555556)"/><use xlink:href="#x" transform="matrix(1,0,0,1,-2775,-403.5) translate(88.22222222222226 27.55555555555556)"/><use xlink:href="#y" transform="matrix(1,0,0,1,-2775,-403.5) translate(243.34567901234567 27.55555555555556)"/><use xlink:href="#z" transform="matrix(1,0,0,1,-2775,-403.5) translate(142.62345679012347 64.88888888888889)"/><path d="M-2760-1174a6 6 0 0 1 6-6h428a6 6 0 0 1 6 6v223a6 6 0 0 1-6 6h-428a6 6 0 0 1-6-6z" fill="#bb86fc"/><path d="M-2760-1174a6 6 0 0 1 6-6h428a6 6 0 0 1 6 6v223a6 6 0 0 1-6 6h-428a6 6 0 0 1-6-6zM-2760-1133h440" stroke="#9e66e4" stroke-width="2" fill="none"/><use xlink:href="#A" transform="matrix(1,0,0,1,-2750,-1180) translate(181.4814814814815 29.72222222222222)"/><use xlink:href="#B" transform="matrix(1,0,0,1,-2755,-1130.5) translate(0 24.888888888888886)"/><use xlink:href="#C" transform="matrix(1,0,0,1,-2755,-1130.5) translate(50.12345679012345 24.888888888888886)"/><use xlink:href="#D" transform="matrix(1,0,0,1,-2755,-1130.5) translate(160.6543209876543 24.888888888888886)"/><use xlink:href="#E" transform="matrix(1,0,0,1,-2755,-1083.5) translate(0 24.888888888888886)"/><use xlink:href="#F" transform="matrix(1,0,0,1,-2755,-1083.5) translate(164.1111111111111 24.888888888888886)"/><use xlink:href="#G" transform="matrix(1,0,0,1,-2755,-1036.5) translate(0 24.888888888888886)"/><use xlink:href="#H" transform="matrix(1,0,0,1,-2755,-1036.5) translate(138.27160493827157 24.888888888888886)"/><use xlink:href="#I" transform="matrix(1,0,0,1,-2755,-989.5) translate(0 24.888888888888886)"/><use xlink:href="#J" transform="matrix(1,0,0,1,-2755,-989.5) translate(354.1481481481481 24.888888888888886)"/><path d="M-1740-314a6 6 0 0 1 6-6h428a6 6 0 0 1 6 6v176a6 6 0 0 1-6 6h-428a6 6 0 0 1-6-6z" fill="#bb86fc"/><path d="M-1740-314a6 6 0 0 1 6-6h428a6 6 0 0 1 6 6v176a6 6 0 0 1-6 6h-428a6 6 0 0 1-6-6zM-1740-273h440" stroke="#9e66e4" stroke-width="2" fill="none"/><use xlink:href="#K" transform="matrix(1,0,0,1,-1730,-320) translate(156.50617283950618 29.72222222222222)"/><use xlink:href="#L" transform="matrix(1,0,0,1,-1735,-270.5) translate(0 24.888888888888882)"/><use xlink:href="#M" transform="matrix(1,0,0,1,-1735,-270.5) translate(50.12345679012344 24.888888888888882)"/><use xlink:href="#e" transform="matrix(1,0,0,1,-1735,-270.5) translate(117.44444444444441 24.888888888888882)"/><use xlink:href="#N" transform="matrix(1,0,0,1,-1735,-223.5) translate(0 24.888888888888882)"/><use xlink:href="#O" transform="matrix(1,0,0,1,-1735,-223.5) translate(160.48148148148144 24.888888888888882)"/><use xlink:href="#P" transform="matrix(1,0,0,1,-1735,-176.5) translate(0 24.888888888888882)"/><use xlink:href="#Q" transform="matrix(1,0,0,1,-1735,-176.5) translate(69.13580246913578 24.888888888888882)"/><path d="M-720-734a6 6 0 0 1 6-6h428a6 6 0 0 1 6 6v129a6 6 0 0 1-6 6h-428a6 6 0 0 1-6-6z" fill="#bb86fc"/><path d="M-720-734a6 6 0 0 1 6-6h428a6 6 0 0 1 6 6v129a6 6 0 0 1-6 6h-428a6 6 0 0 1-6-6zM-720-693h440" stroke="#9e66e4" stroke-width="2" fill="none"/><use xlink:href="#R" transform="matrix(1,0,0,1,-710,-740) translate(154.73456790123458 29.72222222222222)"/><use xlink:href="#b" transform="matrix(1,0,0,1,-715,-690.5) translate(0 27.22222222222222)"/><use xlink:href="#S" transform="matrix(1,0,0,1,-715,-690.5) translate(17.283950617283946 27.22222222222222)"/><use xlink:href="#d" transform="matrix(1,0,0,1,-715,-690.5) translate(119.25925925925924 27.22222222222222)"/><use xlink:href="#e" transform="matrix(1,0,0,1,-715,-690.5) translate(368.06172839506166 27.22222222222222)"/><use xlink:href="#f" transform="matrix(1,0,0,1,-715,-643.5) translate(0 27.22222222222222)"/><use xlink:href="#g" transform="matrix(1,0,0,1,-715,-643.5) translate(77.77777777777776 27.22222222222222)"/><use xlink:href="#h" transform="matrix(1,0,0,1,-715,-643.5) translate(250.53086419753083 27.22222222222222)"/><path d="M-1860-1234a6 6 0 0 1 6-6h608a6 6 0 0 1 6 6v317a6 6 0 0 1-6 6h-608a6 6 0 0 1-6-6z" fill="#bb86fc"/><path d="M-1860-1234a6 6 0 0 1 6-6h608a6 6 0 0 1 6 6v317a6 6 0 0 1-6 6h-608a6 6 0 0 1-6-6zM-1860-1193h620" stroke="#9e66e4" stroke-width="2" fill="none"/><use xlink:href="#T" transform="matrix(1,0,0,1,-1850,-1240) translate(206.83950617283952 29.72222222222222)"/><use xlink:href="#b" transform="matrix(1,0,0,1,-1855,-1190.5) translate(0 27.22222222222222)"/><use xlink:href="#c" transform="matrix(1,0,0,1,-1855,-1190.5) translate(17.283950617283946 27.22222222222222)"/><use xlink:href="#d" transform="matrix(1,0,0,1,-1855,-1190.5) translate(93.33333333333331 27.22222222222222)"/><use xlink:href="#e" transform="matrix(1,0,0,1,-1855,-1190.5) translate(342.13580246913574 27.22222222222222)"/><use xlink:href="#f" transform="matrix(1,0,0,1,-1855,-1143.5) translate(0 27.22222222222222)"/><use xlink:href="#U" transform="matrix(1,0,0,1,-1855,-1143.5) translate(77.77777777777776 27.22222222222222)"/><use xlink:href="#h" transform="matrix(1,0,0,1,-1855,-1143.5) translate(276.45679012345676 27.22222222222222)"/><use xlink:href="#f" transform="matrix(1,0,0,1,-1855,-1096.5) translate(0 27.22222222222222)"/><use xlink:href="#V" transform="matrix(1,0,0,1,-1855,-1096.5) translate(77.77777777777776 27.22222222222222)"/><use xlink:href="#e" transform="matrix(1,0,0,1,-1855,-1096.5) translate(290.2839506172839 27.22222222222222)"/><use xlink:href="#i" transform="matrix(1,0,0,1,-1855,-1049.5) translate(0 27.22222222222222)"/><use xlink:href="#W" transform="matrix(1,0,0,1,-1855,-1049.5) translate(69.13580246913578 27.22222222222222)"/><use xlink:href="#e" transform="matrix(1,0,0,1,-1855,-1049.5) translate(285.0123456790123 27.22222222222222)"/><use xlink:href="#q" transform="matrix(1,0,0,1,-1855,-1002.5) translate(0 27.22222222222222)"/><use xlink:href="#X" transform="matrix(1,0,0,1,-1855,-1002.5) translate(25.925925925925917 27.22222222222222)"/><use xlink:href="#Y" transform="matrix(1,0,0,1,-1855,-1002.5) translate(74.23456790123456 27.22222222222222)"/><use xlink:href="#Z" transform="matrix(1,0,0,1,-1855,-1002.5) translate(186.32098765432096 27.22222222222222)"/><use xlink:href="#aa" transform="matrix(1,0,0,1,-1855,-1002.5) translate(326.1481481481481 27.22222222222222)"/><use xlink:href="#q" transform="matrix(1,0,0,1,-1855,-955.5) translate(0 27.22222222222222)"/><use xlink:href="#X" transform="matrix(1,0,0,1,-1855,-955.5) translate(25.925925925925917 27.22222222222222)"/><use xlink:href="#ab" transform="matrix(1,0,0,1,-1855,-955.5) translate(74.23456790123456 27.22222222222222)"/><use xlink:href="#Z" transform="matrix(1,0,0,1,-1855,-955.5) translate(250.18518518518513 27.22222222222222)"/><use xlink:href="#v" transform="matrix(1,0,0,1,-1855,-955.5) translate(390.01234567901224 27.22222222222222)"/><path d="M-1550-910" stroke="#03dac6" stroke-width="3" fill="none"/><path d="M-1570-920v20M-1550-910h-20" stroke="#03dac6" stroke-width="3" fill="#fff"/><path d="M-1550.67-900l-20-10 20-10" stroke="#03dac6" stroke-width="3" fill="#fff" fill-opacity="0"/><path d="M-1550.67-910h-20" stroke="#03dac6" stroke-width="3" fill="#fff"/><path d="M-1820-794a6 6 0 0 1 6-6h608a6 6 0 0 1 6 6v317a6 6 0 0 1-6 6h-608a6 6 0 0 1-6-6z" fill="#bb86fc"/><path d="M-1820-794a6 6 0 0 1 6-6h608a6 6 0 0 1 6 6v317a6 6 0 0 1-6 6h-608a6 6 0 0 1-6-6zM-1820-753h620" stroke="#9e66e4" stroke-width="2" fill="none"/><g><use xlink:href="#ac" transform="matrix(1,0,0,1,-1810,-800) translate(265.51851851851853 29.72222222222222)"/></g><g><use xlink:href="#b" transform="matrix(1,0,0,1,-1815,-750.5) translate(0 27.22222222222222)"/><use xlink:href="#c" transform="matrix(1,0,0,1,-1815,-750.5) translate(17.283950617283946 27.22222222222222)"/><use xlink:href="#d" transform="matrix(1,0,0,1,-1815,-750.5) translate(93.33333333333331 27.22222222222222)"/><use xlink:href="#e" transform="matrix(1,0,0,1,-1815,-750.5) translate(342.13580246913574 27.22222222222222)"/></g><g><use xlink:href="#ad" transform="matrix(1,0,0,1,-1815,-703.5) translate(0 27.22222222222222)"/><use xlink:href="#ae" transform="matrix(1,0,0,1,-1815,-703.5) translate(17.283950617283946 27.22222222222222)"/><use xlink:href="#af" transform="matrix(1,0,0,1,-1815,-703.5) translate(340.1481481481481 27.22222222222222)"/></g><g><use xlink:href="#ag" transform="matrix(1,0,0,1,-1815,-656.5) translate(0 27.22222222222222)"/><use xlink:href="#ah" transform="matrix(1,0,0,1,-1815,-656.5) translate(25.925925925925917 27.22222222222222)"/><use xlink:href="#af" transform="matrix(1,0,0,1,-1815,-656.5) translate(342.13580246913574 27.22222222222222)"/></g><g><use xlink:href="#ag" transform="matrix(1,0,0,1,-1815,-609.5) translate(0 27.22222222222222)"/><use xlink:href="#ai" transform="matrix(1,0,0,1,-1815,-609.5) translate(25.925925925925917 27.22222222222222)"/><use xlink:href="#aj" transform="matrix(1,0,0,1,-1815,-609.5) translate(338.59259259259255 27.22222222222222)"/></g><g><use xlink:href="#ak" transform="matrix(1,0,0,1,-1815,-562.5) translate(0 27.22222222222222)"/><use xlink:href="#al" transform="matrix(1,0,0,1,-1815,-562.5) translate(8.641975308641973 27.22222222222222)"/><use xlink:href="#am" transform="matrix(1,0,0,1,-1815,-562.5) translate(56.950617283950606 27.22222222222222)"/><use xlink:href="#an" transform="matrix(1,0,0,1,-1815,-562.5) translate(218.90123456790118 27.22222222222222)"/><use xlink:href="#ao" transform="matrix(1,0,0,1,-1815,-562.5) translate(358.7283950617283 27.22222222222222)"/></g><g><use xlink:href="#ap" transform="matrix(1,0,0,1,-1815,-515.5) translate(0 27.22222222222222)"/><use xlink:href="#X" transform="matrix(1,0,0,1,-1815,-515.5) translate(8.641975308641973 27.22222222222222)"/><use xlink:href="#aq" transform="matrix(1,0,0,1,-1815,-515.5) translate(56.950617283950606 27.22222222222222)"/><use xlink:href="#Z" transform="matrix(1,0,0,1,-1815,-515.5) translate(177.67901234567898 27.22222222222222)"/><use xlink:href="#aa" transform="matrix(1,0,0,1,-1815,-515.5) translate(317.5061728395061 27.22222222222222)"/></g><path d="M-1219-981.2h14a6 6 0 0 1 6 6v89.2a6 6 0 0 1-6 6h-1590a6 6 0 0 1-6-6v-217.7a6 6 0 0 1 6-6h15.76" stroke="#03dac6" stroke-width="3" fill="none"/><path d="M-1219-971.2v-20M-1239-981.2h20" stroke="#03dac6" stroke-width="3" fill="#fff"/><path d="M-2761.67-1099.7l-20-10 20-10" stroke="#03dac6" stroke-width="3" fill="#fff" fill-opacity="0"/><path d="M-2761.67-1109.7h-20" stroke="#03dac6" stroke-width="3" fill="#fff"/><path d="M-1219-934.04h233a6 6 0 0 1 6 6v252.54a6 6 0 0 0 6 6h234.76" stroke="#03dac6" stroke-width="3" fill="none"/><path d="M-1219-924.04v-20M-1239-934.04h20" stroke="#03dac6" stroke-width="3" fill="#fff"/><path d="M-721.67-659.5l-20-10 20-10" stroke="#03dac6" stroke-width="3" fill="#fff" fill-opacity="0"/><path d="M-721.67-669.5h-20" stroke="#03dac6" stroke-width="3" fill="#fff"/><path d="M-2319-1109.7" stroke="#03dac6" stroke-width="3" fill="none"/><path d="M-2339-1119.7v20M-2319-1109.7h-20" stroke="#03dac6" stroke-width="3" fill="#fff"/><path d="M-2319.67-1099.7l-20-10 20-10" stroke="#03dac6" stroke-width="3" fill="#fff" fill-opacity="0"/><path d="M-2319.67-1109.7h-20" stroke="#03dac6" stroke-width="3" fill="#fff"/><path d="M-1179-541.2h14a6 6 0 0 1 6 6V-126a6 6 0 0 1-6 6h-1650a6 6 0 0 1-6-6v-617.5a6 6 0 0 1 6-6h15.76" stroke="#03dac6" stroke-width="3" fill="none"/><path d="M-1179-531.2v-20M-1199-541.2h20" stroke="#03dac6" stroke-width="3" fill="#fff"/><path d="M-2781.67-739.5l-20-10 20-10" stroke="#03dac6" stroke-width="3" fill="#fff" fill-opacity="0"/><path d="M-2781.67-749.5h-20" stroke="#03dac6" stroke-width="3" fill="#fff"/><path d="M-1841-494.05h-223a6 6 0 0 1-6-6v-603.66a6 6 0 0 0-6-6h-224.76" stroke="#03dac6" stroke-width="3" fill="none"/><path d="M-1841-504.05v20M-1821-494.05h-20" stroke="#03dac6" stroke-width="3" fill="#fff"/><path d="M-2318.33-1119.7l20 10-20 10" stroke="#03dac6" stroke-width="3" fill="#fff" fill-opacity="0"/><path d="M-2318.33-1109.7h20" stroke="#03dac6" stroke-width="3" fill="#fff"/><path d="M-2319-448.5h1569a6 6 0 0 0 6-6v-210.24a4.76 4.76 0 0 1 4.76-4.76" stroke="#03dac6" stroke-width="3" fill="none"/><path d="M-2319-438.5v-20M-2339-448.5h20" stroke="#03dac6" stroke-width="3" fill="#fff"/><path d="M-721.67-659.5l-20-10 20-10" stroke="#03dac6" stroke-width="3" fill="#fff" fill-opacity="0"/><path d="M-721.67-669.5h-20" stroke="#03dac6" stroke-width="3" fill="#fff"/><path d="M-2319-362.56h273a6 6 0 0 1 6 6v100.95a6 6 0 0 0 6 6h274.77" stroke="#03dac6" stroke-width="3" fill="none"/><path d="M-2319-352.56v-20M-2339-362.56h20" stroke="#03dac6" stroke-width="3" fill="#fff"/><path d="M-1741.67-239.6l-20-10 20-10" stroke="#03dac6" stroke-width="3" fill="#fff" fill-opacity="0"/><path d="M-1741.67-249.6h-20" stroke="#03dac6" stroke-width="3" fill="#fff"/><defs><path fill="#fff" d="M205 0l-28-72H64L36 0H1l101-248h38L239 0h-34zm-38-99l-47-123c-12 45-31 82-46 123h93" id="ar"/><path fill="#fff" d="M117-194c89-4 53 116 60 194h-32v-121c0-31-8-49-39-48C34-167 62-67 57 0H25l-1-190h30c1 10-1 24 2 32 11-22 29-35 61-36" id="as"/><path fill="#fff" d="M24-231v-30h32v30H24zM24 0v-190h32V0H24" id="at"/><path fill="#fff" d="M210-169c-67 3-38 105-44 169h-31v-121c0-29-5-50-35-48C34-165 62-65 56 0H25l-1-190h30c1 10-1 24 2 32 10-44 99-50 107 0 11-21 27-35 58-36 85-2 47 119 55 194h-31v-121c0-29-5-49-35-48" id="au"/><path fill="#fff" d="M141-36C126-15 110 5 73 4 37 3 15-17 15-53c-1-64 63-63 125-63 3-35-9-54-41-54-24 1-41 7-42 31l-33-3c5-37 33-52 76-52 45 0 72 20 72 64v82c-1 20 7 32 28 27v20c-31 9-61-2-59-35zM48-53c0 20 12 33 32 33 41-3 63-29 60-74-43 2-92-5-92 41" id="av"/><path fill="#fff" d="M24 0v-261h32V0H24" id="aw"/><path fill="#fff" d="M135-143c-3-34-86-38-87 0 15 53 115 12 119 90S17 21 10-45l28-5c4 36 97 45 98 0-10-56-113-15-118-90-4-57 82-63 122-42 12 7 21 19 24 35" id="ax"/><g id="a"><use transform="matrix(0.08641975308641972,0,0,0.08641975308641972,0,0)" xlink:href="#ar"/><use transform="matrix(0.08641975308641972,0,0,0.08641975308641972,20.740740740740733,0)" xlink:href="#as"/><use transform="matrix(0.08641975308641972,0,0,0.08641975308641972,38.02469135802468,0)" xlink:href="#at"/><use transform="matrix(0.08641975308641972,0,0,0.08641975308641972,44.85185185185185,0)" xlink:href="#au"/><use transform="matrix(0.08641975308641972,0,0,0.08641975308641972,70.69135802469134,0)" xlink:href="#av"/><use transform="matrix(0.08641975308641972,0,0,0.08641975308641972,87.97530864197529,0)" xlink:href="#aw"/><use transform="matrix(0.08641975308641972,0,0,0.08641975308641972,94.80246913580245,0)" xlink:href="#ax"/></g><path fill="#fff" d="M30-248c87 1 191-15 191 75 0 78-77 80-158 76V0H30v-248zm33 125c57 0 124 11 124-50 0-59-68-47-124-48v98" id="ay"/><path fill="#fff" d="M194 0L95-120 63-95V0H30v-248h33v124l119-124h40L117-140 236 0h-42" id="az"/><g id="c"><use transform="matrix(0.08641975308641972,0,0,0.08641975308641972,0,0)" xlink:href="#ay"/><use transform="matrix(0.08641975308641972,0,0,0.08641975308641972,20.740740740740733,0)" xlink:href="#az"/></g><path fill="#fff" d="M85-194c31 0 48 13 60 33l-1-100h32l1 261h-30c-2-10 0-23-3-31C134-8 116 4 85 4 32 4 16-35 15-94c0-66 23-100 70-100zm9 24c-40 0-46 34-46 75 0 40 6 74 45 74 42 0 51-32 51-76 0-42-9-74-50-73" id="aA"/><g id="d"><use transform="matrix(0.08641975308641972,0,0,0.08641975308641972,0,0)" xlink:href="#at"/><use transform="matrix(0.08641975308641972,0,0,0.08641975308641972,6.827160493827158,0)" xlink:href="#aA"/></g><path fill="#fff" d="M59-47c-2 24 18 29 38 22v24C64 9 27 4 27-40v-127H5v-23h24l9-43h21v43h35v23H59v120" id="aB"/><g id="e"><use transform="matrix(0.08641975308641972,0,0,0.08641975308641972,0,0)" xlink:href="#at"/><use transform="matrix(0.08641975308641972,0,0,0.08641975308641972,6.827160493827158,0)" xlink:href="#as"/><use transform="matrix(0.08641975308641972,0,0,0.08641975308641972,24.111111111111104,0)" xlink:href="#aB"/></g><path fill="#fff" d="M100-194c63 0 86 42 84 106H49c0 40 14 67 53 68 26 1 43-12 49-29l28 8c-11 28-37 45-77 45C44 4 14-33 15-96c1-61 26-98 85-98zm52 81c6-60-76-77-97-28-3 7-6 17-6 28h103" id="aC"/><g id="g"><use transform="matrix(0.08641975308641972,0,0,0.08641975308641972,0,0)" xlink:href="#as"/><use transform="matrix(0.08641975308641972,0,0,0.08641975308641972,17.283950617283946,0)" xlink:href="#av"/><use transform="matrix(0.08641975308641972,0,0,0.08641975308641972,34.56790123456789,0)" xlink:href="#au"/><use transform="matrix(0.08641975308641972,0,0,0.08641975308641972,60.4074074074074,0)" xlink:href="#aC"/></g><path fill="#fff" d="M108 0H70L1-190h34L89-25l56-165h34" id="aD"/><path fill="#fff" d="M114-163C36-179 61-72 57 0H25l-1-190h30c1 12-1 29 2 39 6-27 23-49 58-41v29" id="aE"/><path fill="#fff" d="M96-169c-40 0-48 33-48 73s9 75 48 75c24 0 41-14 43-38l32 2c-6 37-31 61-74 61-59 0-76-41-82-99-10-93 101-131 147-64 4 7 5 14 7 22l-32 3c-4-21-16-35-41-35" id="aF"/><path fill="#fff" d="M106-169C34-169 62-67 57 0H25v-261h32l-1 103c12-21 28-36 61-36 89 0 53 116 60 194h-32v-121c2-32-8-49-39-48" id="aG"/><path fill="#fff" d="M87 75C49 33 22-17 22-94c0-76 28-126 65-167h31c-38 41-64 92-64 168S80 34 118 75H87" id="aH"/><path fill="#fff" d="M155-56V0h-30v-56H8v-25l114-167h33v167h35v25h-35zm-30-156c-27 46-58 90-88 131h88v-131" id="aI"/><path fill="#fff" d="M101-251c68 0 85 55 85 127S166 4 100 4C33 4 14-52 14-124c0-73 17-127 87-127zm-1 229c47 0 54-49 54-102s-4-102-53-102c-51 0-55 48-55 102 0 53 5 102 54 102" id="aJ"/><path fill="#fff" d="M33-261c38 41 65 92 65 168S71 34 33 75H2C39 34 66-17 66-93S39-220 2-261h31" id="aK"/><g id="h"><use transform="matrix(0.08641975308641972,0,0,0.08641975308641972,0,0)" xlink:href="#aD"/><use transform="matrix(0.08641975308641972,0,0,0.08641975308641972,15.55555555555555,0)" xlink:href="#av"/><use transform="matrix(0.08641975308641972,0,0,0.08641975308641972,32.83950617283949,0)" xlink:href="#aE"/><use transform="matrix(0.08641975308641972,0,0,0.08641975308641972,43.12345679012344,0)" xlink:href="#aF"/><use transform="matrix(0.08641975308641972,0,0,0.08641975308641972,58.67901234567899,0)" xlink:href="#aG"/><use transform="matrix(0.08641975308641972,0,0,0.08641975308641972,75.96296296296293,0)" xlink:href="#av"/><use transform="matrix(0.08641975308641972,0,0,0.08641975308641972,93.24691358024688,0)" xlink:href="#aE"/><use transform="matrix(0.08641975308641972,0,0,0.08641975308641972,103.53086419753083,0)" xlink:href="#aH"/><use transform="matrix(0.08641975308641972,0,0,0.08641975308641972,113.81481481481477,0)" xlink:href="#aI"/><use transform="matrix(0.08641975308641972,0,0,0.08641975308641972,131.09876543209873,0)" xlink:href="#aJ"/><use transform="matrix(0.08641975308641972,0,0,0.08641975308641972,148.38271604938268,0)" xlink:href="#aK"/></g><path fill="#fff" d="M-5 72V49h209v23H-5" id="aL"/><path fill="#fff" d="M100-194c62-1 85 37 85 99 1 63-27 99-86 99S16-35 15-95c0-66 28-99 85-99zM99-20c44 1 53-31 53-75 0-43-8-75-51-75s-53 32-53 75 10 74 51 75" id="aM"/><path fill="#fff" d="M101-234c-31-9-42 10-38 44h38v23H63V0H32v-167H5v-23h27c-7-52 17-82 69-68v24" id="aN"/><path fill="#fff" d="M115-194c53 0 69 39 70 98 0 66-23 100-70 100C84 3 66-7 56-30L54 0H23l1-261h32v101c10-23 28-34 59-34zm-8 174c40 0 45-34 45-75 0-40-5-75-45-74-42 0-51 32-51 76 0 43 10 73 51 73" id="aO"/><g id="j"><use transform="matrix(0.08641975308641972,0,0,0.08641975308641972,0,0)" xlink:href="#aA"/><use transform="matrix(0.08641975308641972,0,0,0.08641975308641972,17.283950617283946,0)" xlink:href="#av"/><use transform="matrix(0.08641975308641972,0,0,0.08641975308641972,34.56790123456789,0)" xlink:href="#aB"/><use transform="matrix(0.08641975308641972,0,0,0.08641975308641972,43.209876543209866,0)" xlink:href="#aC"/><use transform="matrix(0.08641975308641972,0,0,0.08641975308641972,60.4938271604938,0)" xlink:href="#aL"/><use transform="matrix(0.08641975308641972,0,0,0.08641975308641972,77.77777777777776,0)" xlink:href="#aM"/><use transform="matrix(0.08641975308641972,0,0,0.08641975308641972,95.0617283950617,0)" xlink:href="#aN"/><use transform="matrix(0.08641975308641972,0,0,0.08641975308641972,103.70370370370368,0)" xlink:href="#aL"/><use transform="matrix(0.08641975308641972,0,0,0.08641975308641972,120.98765432098763,0)" xlink:href="#aO"/><use transform="matrix(0.08641975308641972,0,0,0.08641975308641972,138.27160493827157,0)" xlink:href="#at"/><use transform="matrix(0.08641975308641972,0,0,0.08641975308641972,145.09876543209873,0)" xlink:href="#aE"/><use transform="matrix(0.08641975308641972,0,0,0.08641975308641972,155.38271604938268,0)" xlink:href="#aB"/><use transform="matrix(0.08641975308641972,0,0,0.08641975308641972,164.02469135802465,0)" xlink:href="#aG"/></g><g id="k"><use transform="matrix(0.08641975308641972,0,0,0.08641975308641972,0,0)" xlink:href="#aA"/><use transform="matrix(0.08641975308641972,0,0,0.08641975308641972,17.283950617283946,0)" xlink:href="#av"/><use transform="matrix(0.08641975308641972,0,0,0.08641975308641972,34.56790123456789,0)" xlink:href="#aB"/><use transform="matrix(0.08641975308641972,0,0,0.08641975308641972,43.209876543209866,0)" xlink:href="#av"/></g><path fill="#fff" d="M115-194c55 1 70 41 70 98S169 2 115 4C84 4 66-9 55-30l1 105H24l-1-265h31l2 30c10-21 28-34 59-34zm-8 174c40 0 45-34 45-75s-6-73-45-74c-42 0-51 32-51 76 0 43 10 73 51 73" id="aP"/><path fill="#fff" d="M16-82v-28h88v28H16" id="aQ"/><g id="l"><use transform="matrix(0.08641975308641972,0,0,0.08641975308641972,0,0)" xlink:href="#aC"/><use transform="matrix(0.08641975308641972,0,0,0.08641975308641972,17.283950617283946,0)" xlink:href="#ax"/><use transform="matrix(0.08641975308641972,0,0,0.08641975308641972,32.83950617283949,0)" xlink:href="#aF"/><use transform="matrix(0.08641975308641972,0,0,0.08641975308641972,48.39506172839504,0)" xlink:href="#av"/><use transform="matrix(0.08641975308641972,0,0,0.08641975308641972,65.67901234567898,0)" xlink:href="#aP"/><use transform="matrix(0.08641975308641972,0,0,0.08641975308641972,82.96296296296293,0)" xlink:href="#aC"/><use transform="matrix(0.08641975308641972,0,0,0.08641975308641972,100.24691358024688,0)" xlink:href="#aQ"/><use transform="matrix(0.08641975308641972,0,0,0.08641975308641972,110.53086419753082,0)" xlink:href="#av"/><use transform="matrix(0.08641975308641972,0,0,0.08641975308641972,127.81481481481478,0)" xlink:href="#aB"/><use transform="matrix(0.08641975308641972,0,0,0.08641975308641972,136.45679012345676,0)" xlink:href="#aB"/><use transform="matrix(0.08641975308641972,0,0,0.08641975308641972,145.09876543209873,0)" xlink:href="#aC"/><use transform="matrix(0.08641975308641972,0,0,0.08641975308641972,162.38271604938268,0)" xlink:href="#au"/><use transform="matrix(0.08641975308641972,0,0,0.08641975308641972,188.2222222222222,0)" xlink:href="#aP"/><use transform="matrix(0.08641975308641972,0,0,0.08641975308641972,205.50617283950612,0)" xlink:href="#aB"/><use transform="matrix(0.08641975308641972,0,0,0.08641975308641972,214.1481481481481,0)" xlink:href="#ax"/></g><path fill="#fff" d="M84 4C-5 8 30-112 23-190h32v120c0 31 7 50 39 49 72-2 45-101 50-169h31l1 190h-30c-1-10 1-25-2-33-11 22-28 36-60 37" id="aR"/><g id="m"><use transform="matrix(0.08641975308641972,0,0,0.08641975308641972,0,0)" xlink:href="#as"/><use transform="matrix(0.08641975308641972,0,0,0.08641975308641972,17.283950617283946,0)" xlink:href="#aC"/><use transform="matrix(0.08641975308641972,0,0,0.08641975308641972,34.56790123456789,0)" xlink:href="#aR"/><use transform="matrix(0.08641975308641972,0,0,0.08641975308641972,51.85185185185183,0)" xlink:href="#aB"/><use transform="matrix(0.08641975308641972,0,0,0.08641975308641972,60.4938271604938,0)" xlink:href="#aC"/><use transform="matrix(0.08641975308641972,0,0,0.08641975308641972,77.77777777777776,0)" xlink:href="#aE"/><use transform="matrix(0.08641975308641972,0,0,0.08641975308641972,88.0617283950617,0)" xlink:href="#aC"/><use transform="matrix(0.08641975308641972,0,0,0.08641975308641972,105.34567901234566,0)" xlink:href="#aA"/></g><g id="n"><use transform="matrix(0.08641975308641972,0,0,0.08641975308641972,0,0)" xlink:href="#aO"/><use transform="matrix(0.08641975308641972,0,0,0.08641975308641972,17.283950617283946,0)" xlink:href="#aM"/><use transform="matrix(0.08641975308641972,0,0,0.08641975308641972,34.56790123456789,0)" xlink:href="#aM"/><use transform="matrix(0.08641975308641972,0,0,0.08641975308641972,51.85185185185183,0)" xlink:href="#aw"/><use transform="matrix(0.08641975308641972,0,0,0.08641975308641972,58.67901234567899,0)" xlink:href="#aC"/><use transform="matrix(0.08641975308641972,0,0,0.08641975308641972,75.96296296296293,0)" xlink:href="#av"/><use transform="matrix(0.08641975308641972,0,0,0.08641975308641972,93.24691358024688,0)" xlink:href="#as"/></g><path fill="#fff" d="M206 0h-36l-40-164L89 0H53L-1-190h32L70-26l43-164h34l41 164 42-164h31" id="aS"/><path fill="#fff" d="M177-190C167-65 218 103 67 71c-23-6-38-20-44-43l32-5c15 47 100 32 89-28v-30C133-14 115 1 83 1 29 1 15-40 15-95c0-56 16-97 71-98 29-1 48 16 59 35 1-10 0-23 2-32h30zM94-22c36 0 50-32 50-73 0-42-14-75-50-75-39 0-46 34-46 75s6 73 46 73" id="aT"/><path fill="#fff" d="M143 0L79-87 56-68V0H24v-261h32v163l83-92h37l-77 82L181 0h-38" id="aU"/><g id="o"><use transform="matrix(0.08641975308641972,0,0,0.08641975308641972,0,0)" xlink:href="#aS"/><use transform="matrix(0.08641975308641972,0,0,0.08641975308641972,22.382716049382708,0)" xlink:href="#aC"/><use transform="matrix(0.08641975308641972,0,0,0.08641975308641972,39.66666666666666,0)" xlink:href="#at"/><use transform="matrix(0.08641975308641972,0,0,0.08641975308641972,46.49382716049382,0)" xlink:href="#aT"/><use transform="matrix(0.08641975308641972,0,0,0.08641975308641972,63.77777777777776,0)" xlink:href="#aG"/><use transform="matrix(0.08641975308641972,0,0,0.08641975308641972,81.0617283950617,0)" xlink:href="#aB"/><use transform="matrix(0.08641975308641972,0,0,0.08641975308641972,89.7037037037037,0)" xlink:href="#aL"/><use transform="matrix(0.08641975308641972,0,0,0.08641975308641972,106.98765432098763,0)" xlink:href="#aU"/><use transform="matrix(0.08641975308641972,0,0,0.08641975308641972,122.54320987654319,0)" xlink:href="#aT"/></g><g id="p"><use transform="matrix(0.08641975308641972,0,0,0.08641975308641972,0,0)" xlink:href="#aA"/><use transform="matrix(0.08641975308641972,0,0,0.08641975308641972,17.283950617283946,0)" xlink:href="#aC"/><use transform="matrix(0.08641975308641972,0,0,0.08641975308641972,34.56790123456789,0)" xlink:href="#aF"/><use transform="matrix(0.08641975308641972,0,0,0.08641975308641972,50.12345679012344,0)" xlink:href="#at"/><use transform="matrix(0.08641975308641972,0,0,0.08641975308641972,56.9506172839506,0)" xlink:href="#au"/><use transform="matrix(0.08641975308641972,0,0,0.08641975308641972,82.7901234567901,0)" xlink:href="#av"/><use transform="matrix(0.08641975308641972,0,0,0.08641975308641972,100.07407407407406,0)" xlink:href="#aw"/></g><path fill="#fff" d="M63-220v92h138v28H63V0H30v-248h175v28H63" id="aV"/><g id="r"><use transform="matrix(0.08641975308641972,0,0,0.08641975308641972,0,0)" xlink:href="#aV"/><use transform="matrix(0.08641975308641972,0,0,0.08641975308641972,18.92592592592592,0)" xlink:href="#az"/></g><g id="s"><use transform="matrix(0.08641975308641972,0,0,0.08641975308641972,0,0)" xlink:href="#aH"/><use transform="matrix(0.08641975308641972,0,0,0.08641975308641972,10.283950617283947,0)" xlink:href="#ax"/><use transform="matrix(0.08641975308641972,0,0,0.08641975308641972,25.839506172839503,0)" xlink:href="#aP"/><use transform="matrix(0.08641975308641972,0,0,0.08641975308641972,43.12345679012344,0)" xlink:href="#aC"/><use transform="matrix(0.08641975308641972,0,0,0.08641975308641972,60.4074074074074,0)" xlink:href="#aF"/><use transform="matrix(0.08641975308641972,0,0,0.08641975308641972,75.96296296296293,0)" xlink:href="#at"/><use transform="matrix(0.08641975308641972,0,0,0.08641975308641972,82.7901234567901,0)" xlink:href="#aC"/><use transform="matrix(0.08641975308641972,0,0,0.08641975308641972,100.07407407407406,0)" xlink:href="#ax"/><use transform="matrix(0.08641975308641972,0,0,0.08641975308641972,115.62962962962959,0)" xlink:href="#aL"/><use transform="matrix(0.08641975308641972,0,0,0.08641975308641972,132.91358024691354,0)" xlink:href="#at"/><use transform="matrix(0.08641975308641972,0,0,0.08641975308641972,139.7407407407407,0)" xlink:href="#aA"/></g><use transform="matrix(0.08641975308641972,0,0,0.08641975308641972,0,0)" xlink:href="#aK" id="t"/><g id="u"><use transform="matrix(0.08641975308641972,0,0,0.08641975308641972,0,0)" xlink:href="#aE"/><use transform="matrix(0.08641975308641972,0,0,0.08641975308641972,10.283950617283947,0)" xlink:href="#aC"/><use transform="matrix(0.08641975308641972,0,0,0.08641975308641972,27.56790123456789,0)" xlink:href="#aN"/><use transform="matrix(0.08641975308641972,0,0,0.08641975308641972,36.209876543209866,0)" xlink:href="#aC"/><use transform="matrix(0.08641975308641972,0,0,0.08641975308641972,53.49382716049381,0)" xlink:href="#aE"/><use transform="matrix(0.08641975308641972,0,0,0.08641975308641972,63.77777777777776,0)" xlink:href="#aC"/><use transform="matrix(0.08641975308641972,0,0,0.08641975308641972,81.0617283950617,0)" xlink:href="#as"/><use transform="matrix(0.08641975308641972,0,0,0.08641975308641972,98.34567901234566,0)" xlink:href="#aF"/><use transform="matrix(0.08641975308641972,0,0,0.08641975308641972,113.90123456790121,0)" xlink:href="#aC"/><use transform="matrix(0.08641975308641972,0,0,0.08641975308641972,131.18518518518516,0)" xlink:href="#ax"/></g><g id="v"><use transform="matrix(0.08641975308641972,0,0,0.08641975308641972,0,0)" xlink:href="#ax"/><use transform="matrix(0.08641975308641972,0,0,0.08641975308641972,15.55555555555555,0)" xlink:href="#aP"/><use transform="matrix(0.08641975308641972,0,0,0.08641975308641972,32.83950617283949,0)" xlink:href="#aC"/><use transform="matrix(0.08641975308641972,0,0,0.08641975308641972,50.12345679012344,0)" xlink:href="#aF"/><use transform="matrix(0.08641975308641972,0,0,0.08641975308641972,65.67901234567898,0)" xlink:href="#at"/><use transform="matrix(0.08641975308641972,0,0,0.08641975308641972,72.50617283950615,0)" xlink:href="#aC"/><use transform="matrix(0.08641975308641972,0,0,0.08641975308641972,89.79012345679008,0)" xlink:href="#ax"/><use transform="matrix(0.08641975308641972,0,0,0.08641975308641972,105.34567901234564,0)" xlink:href="#aH"/><use transform="matrix(0.08641975308641972,0,0,0.08641975308641972,115.62962962962959,0)" xlink:href="#at"/><use transform="matrix(0.08641975308641972,0,0,0.08641975308641972,122.45679012345677,0)" xlink:href="#aA"/><use transform="matrix(0.08641975308641972,0,0,0.08641975308641972,139.7407407407407,0)" xlink:href="#aK"/></g><g id="w"><use transform="matrix(0.08641975308641972,0,0,0.08641975308641972,0,0)" xlink:href="#aV"/><use transform="matrix(0.08641975308641972,0,0,0.08641975308641972,18.92592592592592,0)" xlink:href="#az"/></g><g id="x"><use transform="matrix(0.08641975308641972,0,0,0.08641975308641972,0,0)" xlink:href="#aH"/><use transform="matrix(0.08641975308641972,0,0,0.08641975308641972,10.283950617283947,0)" xlink:href="#aM"/><use transform="matrix(0.08641975308641972,0,0,0.08641975308641972,27.56790123456789,0)" xlink:href="#aS"/><use transform="matrix(0.08641975308641972,0,0,0.08641975308641972,49.9506172839506,0)" xlink:href="#as"/><use transform="matrix(0.08641975308641972,0,0,0.08641975308641972,67.23456790123454,0)" xlink:href="#aC"/><use transform="matrix(0.08641975308641972,0,0,0.08641975308641972,84.51851851851849,0)" xlink:href="#aE"/><use transform="matrix(0.08641975308641972,0,0,0.08641975308641972,94.80246913580244,0)" xlink:href="#aL"/><use transform="matrix(0.08641975308641972,0,0,0.08641975308641972,112.0864197530864,0)" xlink:href="#at"/><use transform="matrix(0.08641975308641972,0,0,0.08641975308641972,118.91358024691354,0)" xlink:href="#aA"/><use transform="matrix(0.08641975308641972,0,0,0.08641975308641972,136.1975308641975,0)" xlink:href="#aK"/></g><g id="y"><use transform="matrix(0.08641975308641972,0,0,0.08641975308641972,0,0)" xlink:href="#aE"/><use transform="matrix(0.08641975308641972,0,0,0.08641975308641972,10.283950617283947,0)" xlink:href="#aC"/><use transform="matrix(0.08641975308641972,0,0,0.08641975308641972,27.56790123456789,0)" xlink:href="#aN"/><use transform="matrix(0.08641975308641972,0,0,0.08641975308641972,36.209876543209866,0)" xlink:href="#aC"/><use transform="matrix(0.08641975308641972,0,0,0.08641975308641972,53.49382716049381,0)" xlink:href="#aE"/><use transform="matrix(0.08641975308641972,0,0,0.08641975308641972,63.77777777777776,0)" xlink:href="#aC"/><use transform="matrix(0.08641975308641972,0,0,0.08641975308641972,81.0617283950617,0)" xlink:href="#as"/><use transform="matrix(0.08641975308641972,0,0,0.08641975308641972,98.34567901234566,0)" xlink:href="#aF"/><use transform="matrix(0.08641975308641972,0,0,0.08641975308641972,113.90123456790121,0)" xlink:href="#aC"/><use transform="matrix(0.08641975308641972,0,0,0.08641975308641972,131.18518518518516,0)" xlink:href="#ax"/></g><g id="z"><use transform="matrix(0.08641975308641972,0,0,0.08641975308641972,0,0)" xlink:href="#aM"/><use transform="matrix(0.08641975308641972,0,0,0.08641975308641972,17.283950617283946,0)" xlink:href="#aS"/><use transform="matrix(0.08641975308641972,0,0,0.08641975308641972,39.66666666666666,0)" xlink:href="#as"/><use transform="matrix(0.08641975308641972,0,0,0.08641975308641972,56.950617283950606,0)" xlink:href="#aC"/><use transform="matrix(0.08641975308641972,0,0,0.08641975308641972,74.23456790123456,0)" xlink:href="#aE"/><use transform="matrix(0.08641975308641972,0,0,0.08641975308641972,84.5185185185185,0)" xlink:href="#ax"/><use transform="matrix(0.08641975308641972,0,0,0.08641975308641972,100.07407407407406,0)" xlink:href="#aH"/><use transform="matrix(0.08641975308641972,0,0,0.08641975308641972,110.358024691358,0)" xlink:href="#at"/><use transform="matrix(0.08641975308641972,0,0,0.08641975308641972,117.18518518518516,0)" xlink:href="#aA"/><use transform="matrix(0.08641975308641972,0,0,0.08641975308641972,134.4691358024691,0)" xlink:href="#aK"/></g><g id="A"><use transform="matrix(0.08641975308641973,0,0,0.08641975308641973,0,0)" xlink:href="#aD"/><use transform="matrix(0.08641975308641973,0,0,0.08641975308641973,15.555555555555552,0)" xlink:href="#aC"/><use transform="matrix(0.08641975308641973,0,0,0.08641975308641973,32.8395061728395,0)" xlink:href="#aB"/><use transform="matrix(0.08641975308641973,0,0,0.08641975308641973,41.481481481481474,0)" xlink:href="#ax"/></g><g id="B"><use transform="matrix(0.08641975308641973,0,0,0.08641975308641973,0,0)" xlink:href="#ay"/><use transform="matrix(0.08641975308641973,0,0,0.08641975308641973,20.740740740740737,0)" xlink:href="#az"/></g><g id="C"><use transform="matrix(0.08641975308641973,0,0,0.08641975308641973,0,0)" xlink:href="#at"/><use transform="matrix(0.08641975308641973,0,0,0.08641975308641973,6.827160493827159,0)" xlink:href="#aA"/></g><g id="D"><use transform="matrix(0.08641975308641973,0,0,0.08641975308641973,0,0)" xlink:href="#at"/><use transform="matrix(0.08641975308641973,0,0,0.08641975308641973,6.827160493827159,0)" xlink:href="#as"/><use transform="matrix(0.08641975308641973,0,0,0.08641975308641973,24.111111111111107,0)" xlink:href="#aB"/></g><g id="E"><use transform="matrix(0.08641975308641973,0,0,0.08641975308641973,0,0)" xlink:href="#as"/><use transform="matrix(0.08641975308641973,0,0,0.08641975308641973,17.283950617283946,0)" xlink:href="#av"/><use transform="matrix(0.08641975308641973,0,0,0.08641975308641973,34.56790123456789,0)" xlink:href="#au"/><use transform="matrix(0.08641975308641973,0,0,0.08641975308641973,60.4074074074074,0)" xlink:href="#aC"/></g><path fill="#fff" d="M54-142c48-35 137-8 131 61C196 18 31 33 14-55l32-4c7 23 22 37 52 37 35-1 51-22 54-58 4-55-73-65-99-34H22l8-134h141v27H59" id="aW"/><g id="F"><use transform="matrix(0.08641975308641973,0,0,0.08641975308641973,0,0)" xlink:href="#aD"/><use transform="matrix(0.08641975308641973,0,0,0.08641975308641973,15.555555555555552,0)" xlink:href="#av"/><use transform="matrix(0.08641975308641973,0,0,0.08641975308641973,32.8395061728395,0)" xlink:href="#aE"/><use transform="matrix(0.08641975308641973,0,0,0.08641975308641973,43.12345679012345,0)" xlink:href="#aF"/><use transform="matrix(0.08641975308641973,0,0,0.08641975308641973,58.679012345679,0)" xlink:href="#aG"/><use transform="matrix(0.08641975308641973,0,0,0.08641975308641973,75.96296296296295,0)" xlink:href="#av"/><use transform="matrix(0.08641975308641973,0,0,0.08641975308641973,93.2469135802469,0)" xlink:href="#aE"/><use transform="matrix(0.08641975308641973,0,0,0.08641975308641973,103.53086419753085,0)" xlink:href="#aH"/><use transform="matrix(0.08641975308641973,0,0,0.08641975308641973,113.8148148148148,0)" xlink:href="#aW"/><use transform="matrix(0.08641975308641973,0,0,0.08641975308641973,131.09876543209873,0)" xlink:href="#aJ"/><use transform="matrix(0.08641975308641973,0,0,0.08641975308641973,148.38271604938268,0)" xlink:href="#aK"/></g><g id="G"><use transform="matrix(0.08641975308641973,0,0,0.08641975308641973,0,0)" xlink:href="#av"/><use transform="matrix(0.08641975308641973,0,0,0.08641975308641973,17.283950617283946,0)" xlink:href="#aT"/><use transform="matrix(0.08641975308641973,0,0,0.08641975308641973,34.56790123456789,0)" xlink:href="#aC"/></g><g id="H"><use transform="matrix(0.08641975308641973,0,0,0.08641975308641973,0,0)" xlink:href="#aA"/><use transform="matrix(0.08641975308641973,0,0,0.08641975308641973,17.283950617283946,0)" xlink:href="#av"/><use transform="matrix(0.08641975308641973,0,0,0.08641975308641973,34.56790123456789,0)" xlink:href="#aB"/><use transform="matrix(0.08641975308641973,0,0,0.08641975308641973,43.209876543209866,0)" xlink:href="#aC"/></g><g id="I"><use transform="matrix(0.08641975308641973,0,0,0.08641975308641973,0,0)" xlink:href="#aA"/><use transform="matrix(0.08641975308641973,0,0,0.08641975308641973,17.283950617283946,0)" xlink:href="#av"/><use transform="matrix(0.08641975308641973,0,0,0.08641975308641973,34.56790123456789,0)" xlink:href="#aB"/><use transform="matrix(0.08641975308641973,0,0,0.08641975308641973,43.209876543209866,0)" xlink:href="#aC"/><use transform="matrix(0.08641975308641973,0,0,0.08641975308641973,60.4938271604938,0)" xlink:href="#aL"/><use transform="matrix(0.08641975308641973,0,0,0.08641975308641973,77.77777777777776,0)" xlink:href="#aM"/><use transform="matrix(0.08641975308641973,0,0,0.08641975308641973,95.0617283950617,0)" xlink:href="#aN"/><use transform="matrix(0.08641975308641973,0,0,0.08641975308641973,103.70370370370368,0)" xlink:href="#aL"/><use transform="matrix(0.08641975308641973,0,0,0.08641975308641973,120.98765432098763,0)" xlink:href="#aT"/><use transform="matrix(0.08641975308641973,0,0,0.08641975308641973,138.27160493827157,0)" xlink:href="#aE"/><use transform="matrix(0.08641975308641973,0,0,0.08641975308641973,148.55555555555551,0)" xlink:href="#av"/><use transform="matrix(0.08641975308641973,0,0,0.08641975308641973,165.83950617283946,0)" xlink:href="#aA"/><use transform="matrix(0.08641975308641973,0,0,0.08641975308641973,183.1234567901234,0)" xlink:href="#aR"/><use transform="matrix(0.08641975308641973,0,0,0.08641975308641973,200.40740740740736,0)" xlink:href="#av"/><use transform="matrix(0.08641975308641973,0,0,0.08641975308641973,217.6913580246913,0)" xlink:href="#aB"/><use transform="matrix(0.08641975308641973,0,0,0.08641975308641973,226.3333333333333,0)" xlink:href="#at"/><use transform="matrix(0.08641975308641973,0,0,0.08641975308641973,233.16049382716045,0)" xlink:href="#aM"/><use transform="matrix(0.08641975308641973,0,0,0.08641975308641973,250.4444444444444,0)" xlink:href="#as"/></g><g id="J"><use transform="matrix(0.08641975308641973,0,0,0.08641975308641973,0,0)" xlink:href="#aA"/><use transform="matrix(0.08641975308641973,0,0,0.08641975308641973,17.283950617283946,0)" xlink:href="#av"/><use transform="matrix(0.08641975308641973,0,0,0.08641975308641973,34.56790123456789,0)" xlink:href="#aB"/><use transform="matrix(0.08641975308641973,0,0,0.08641975308641973,43.209876543209866,0)" xlink:href="#aC"/></g><path fill="#fff" d="M140-251c81 0 123 46 123 126C263-46 219 4 140 4 59 4 17-45 17-125s42-126 123-126zm0 227c63 0 89-41 89-101s-29-99-89-99c-61 0-89 39-89 99S79-25 140-24" id="aX"/><g id="K"><use transform="matrix(0.08641975308641972,0,0,0.08641975308641972,0,0)" xlink:href="#aX"/><use transform="matrix(0.08641975308641972,0,0,0.08641975308641972,24.19753086419752,0)" xlink:href="#aS"/><use transform="matrix(0.08641975308641972,0,0,0.08641975308641972,46.58024691358023,0)" xlink:href="#as"/><use transform="matrix(0.08641975308641972,0,0,0.08641975308641972,63.864197530864175,0)" xlink:href="#aC"/><use transform="matrix(0.08641975308641972,0,0,0.08641975308641972,81.14814814814812,0)" xlink:href="#aE"/><use transform="matrix(0.08641975308641972,0,0,0.08641975308641972,91.43209876543206,0)" xlink:href="#ax"/></g><g id="L"><use transform="matrix(0.08641975308641972,0,0,0.08641975308641972,0,0)" xlink:href="#ay"/><use transform="matrix(0.08641975308641972,0,0,0.08641975308641972,20.740740740740733,0)" xlink:href="#az"/></g><g id="M"><use transform="matrix(0.08641975308641972,0,0,0.08641975308641972,0,0)" xlink:href="#at"/><use transform="matrix(0.08641975308641972,0,0,0.08641975308641972,6.827160493827158,0)" xlink:href="#aA"/></g><g id="N"><use transform="matrix(0.08641975308641972,0,0,0.08641975308641972,0,0)" xlink:href="#aN"/><use transform="matrix(0.08641975308641972,0,0,0.08641975308641972,8.641975308641973,0)" xlink:href="#aR"/><use transform="matrix(0.08641975308641972,0,0,0.08641975308641972,25.925925925925917,0)" xlink:href="#aw"/><use transform="matrix(0.08641975308641972,0,0,0.08641975308641972,32.753086419753075,0)" xlink:href="#aw"/><use transform="matrix(0.08641975308641972,0,0,0.08641975308641972,39.58024691358023,0)" xlink:href="#aL"/><use transform="matrix(0.08641975308641972,0,0,0.08641975308641972,56.864197530864175,0)" xlink:href="#as"/><use transform="matrix(0.08641975308641972,0,0,0.08641975308641972,74.14814814814812,0)" xlink:href="#av"/><use transform="matrix(0.08641975308641972,0,0,0.08641975308641972,91.43209876543206,0)" xlink:href="#au"/><use transform="matrix(0.08641975308641972,0,0,0.08641975308641972,117.27160493827157,0)" xlink:href="#aC"/></g><g id="O"><use transform="matrix(0.08641975308641972,0,0,0.08641975308641972,0,0)" xlink:href="#aD"/><use transform="matrix(0.08641975308641972,0,0,0.08641975308641972,15.55555555555555,0)" xlink:href="#av"/><use transform="matrix(0.08641975308641972,0,0,0.08641975308641972,32.83950617283949,0)" xlink:href="#aE"/><use transform="matrix(0.08641975308641972,0,0,0.08641975308641972,43.12345679012344,0)" xlink:href="#aF"/><use transform="matrix(0.08641975308641972,0,0,0.08641975308641972,58.67901234567899,0)" xlink:href="#aG"/><use transform="matrix(0.08641975308641972,0,0,0.08641975308641972,75.96296296296293,0)" xlink:href="#av"/><use transform="matrix(0.08641975308641972,0,0,0.08641975308641972,93.24691358024688,0)" xlink:href="#aE"/><use transform="matrix(0.08641975308641972,0,0,0.08641975308641972,103.53086419753083,0)" xlink:href="#aH"/><use transform="matrix(0.08641975308641972,0,0,0.08641975308641972,113.81481481481477,0)" xlink:href="#aW"/><use transform="matrix(0.08641975308641972,0,0,0.08641975308641972,131.09876543209873,0)" xlink:href="#aJ"/><use transform="matrix(0.08641975308641972,0,0,0.08641975308641972,148.38271604938268,0)" xlink:href="#aK"/></g><g id="P"><use transform="matrix(0.08641975308641972,0,0,0.08641975308641972,0,0)" xlink:href="#av"/><use transform="matrix(0.08641975308641972,0,0,0.08641975308641972,17.283950617283946,0)" xlink:href="#aT"/><use transform="matrix(0.08641975308641972,0,0,0.08641975308641972,34.56790123456789,0)" xlink:href="#aC"/></g><g id="Q"><use transform="matrix(0.08641975308641972,0,0,0.08641975308641972,0,0)" xlink:href="#aA"/><use transform="matrix(0.08641975308641972,0,0,0.08641975308641972,17.283950617283946,0)" xlink:href="#av"/><use transform="matrix(0.08641975308641972,0,0,0.08641975308641972,34.56790123456789,0)" xlink:href="#aB"/><use transform="matrix(0.08641975308641972,0,0,0.08641975308641972,43.209876543209866,0)" xlink:href="#aC"/></g><path fill="#fff" d="M185-189c-5-48-123-54-124 2 14 75 158 14 163 119 3 78-121 87-175 55-17-10-28-26-33-46l33-7c5 56 141 63 141-1 0-78-155-14-162-118-5-82 145-84 179-34 5 7 8 16 11 25" id="aY"/><g id="R"><use transform="matrix(0.08641975308641972,0,0,0.08641975308641972,0,0)" xlink:href="#aY"/><use transform="matrix(0.08641975308641972,0,0,0.08641975308641972,20.740740740740733,0)" xlink:href="#aP"/><use transform="matrix(0.08641975308641972,0,0,0.08641975308641972,38.02469135802468,0)" xlink:href="#aC"/><use transform="matrix(0.08641975308641972,0,0,0.08641975308641972,55.30864197530863,0)" xlink:href="#aF"/><use transform="matrix(0.08641975308641972,0,0,0.08641975308641972,70.86419753086417,0)" xlink:href="#at"/><use transform="matrix(0.08641975308641972,0,0,0.08641975308641972,77.69135802469134,0)" xlink:href="#aC"/><use transform="matrix(0.08641975308641972,0,0,0.08641975308641972,94.97530864197529,0)" xlink:href="#ax"/></g><g id="S"><use transform="matrix(0.08641975308641972,0,0,0.08641975308641972,0,0)" xlink:href="#ay"/><use transform="matrix(0.08641975308641972,0,0,0.08641975308641972,20.740740740740733,0)" xlink:href="#az"/></g><path fill="#fff" d="M9 0v-24l116-142H16v-24h144v24L44-24h123V0H9" id="aZ"/><g id="T"><use transform="matrix(0.08641975308641972,0,0,0.08641975308641972,0,0)" xlink:href="#ax"/><use transform="matrix(0.08641975308641972,0,0,0.08641975308641972,15.55555555555555,0)" xlink:href="#aP"/><use transform="matrix(0.08641975308641972,0,0,0.08641975308641972,32.83950617283949,0)" xlink:href="#aC"/><use transform="matrix(0.08641975308641972,0,0,0.08641975308641972,50.12345679012344,0)" xlink:href="#aF"/><use transform="matrix(0.08641975308641972,0,0,0.08641975308641972,65.67901234567898,0)" xlink:href="#at"/><use transform="matrix(0.08641975308641972,0,0,0.08641975308641972,72.50617283950615,0)" xlink:href="#av"/><use transform="matrix(0.08641975308641972,0,0,0.08641975308641972,89.79012345679008,0)" xlink:href="#aw"/><use transform="matrix(0.08641975308641972,0,0,0.08641975308641972,96.61728395061726,0)" xlink:href="#at"/><use transform="matrix(0.08641975308641972,0,0,0.08641975308641972,103.44444444444443,0)" xlink:href="#aZ"/><use transform="matrix(0.08641975308641972,0,0,0.08641975308641972,118.99999999999997,0)" xlink:href="#av"/><use transform="matrix(0.08641975308641972,0,0,0.08641975308641972,136.28395061728392,0)" xlink:href="#aB"/><use transform="matrix(0.08641975308641972,0,0,0.08641975308641972,144.9259259259259,0)" xlink:href="#at"/><use transform="matrix(0.08641975308641972,0,0,0.08641975308641972,151.75308641975306,0)" xlink:href="#aM"/><use transform="matrix(0.08641975308641972,0,0,0.08641975308641972,169.037037037037,0)" xlink:href="#as"/></g><g id="U"><use transform="matrix(0.08641975308641972,0,0,0.08641975308641972,0,0)" xlink:href="#as"/><use transform="matrix(0.08641975308641972,0,0,0.08641975308641972,17.283950617283946,0)" xlink:href="#av"/><use transform="matrix(0.08641975308641972,0,0,0.08641975308641972,34.56790123456789,0)" xlink:href="#au"/><use transform="matrix(0.08641975308641972,0,0,0.08641975308641972,60.4074074074074,0)" xlink:href="#aC"/></g><g id="V"><use transform="matrix(0.08641975308641972,0,0,0.08641975308641972,0,0)" xlink:href="#aD"/><use transform="matrix(0.08641975308641972,0,0,0.08641975308641972,15.55555555555555,0)" xlink:href="#aC"/><use transform="matrix(0.08641975308641972,0,0,0.08641975308641972,32.83950617283949,0)" xlink:href="#aB"/><use transform="matrix(0.08641975308641972,0,0,0.08641975308641972,41.48148148148147,0)" xlink:href="#aL"/><use transform="matrix(0.08641975308641972,0,0,0.08641975308641972,58.76543209876542,0)" xlink:href="#at"/><use transform="matrix(0.08641975308641972,0,0,0.08641975308641972,65.59259259259258,0)" xlink:href="#aA"/></g><g id="W"><use transform="matrix(0.08641975308641972,0,0,0.08641975308641972,0,0)" xlink:href="#ax"/><use transform="matrix(0.08641975308641972,0,0,0.08641975308641972,15.55555555555555,0)" xlink:href="#aP"/><use transform="matrix(0.08641975308641972,0,0,0.08641975308641972,32.83950617283949,0)" xlink:href="#aC"/><use transform="matrix(0.08641975308641972,0,0,0.08641975308641972,50.12345679012344,0)" xlink:href="#aF"/><use transform="matrix(0.08641975308641972,0,0,0.08641975308641972,65.67901234567898,0)" xlink:href="#at"/><use transform="matrix(0.08641975308641972,0,0,0.08641975308641972,72.50617283950615,0)" xlink:href="#aC"/><use transform="matrix(0.08641975308641972,0,0,0.08641975308641972,89.79012345679008,0)" xlink:href="#ax"/><use transform="matrix(0.08641975308641972,0,0,0.08641975308641972,105.34567901234564,0)" xlink:href="#aL"/><use transform="matrix(0.08641975308641972,0,0,0.08641975308641972,122.62962962962958,0)" xlink:href="#at"/><use transform="matrix(0.08641975308641972,0,0,0.08641975308641972,129.45679012345676,0)" xlink:href="#aA"/></g><g id="X"><use transform="matrix(0.08641975308641972,0,0,0.08641975308641972,0,0)" xlink:href="#aV"/><use transform="matrix(0.08641975308641972,0,0,0.08641975308641972,18.92592592592592,0)" xlink:href="#az"/></g><g id="Y"><use transform="matrix(0.08641975308641972,0,0,0.08641975308641972,0,0)" xlink:href="#aH"/><use transform="matrix(0.08641975308641972,0,0,0.08641975308641972,10.283950617283947,0)" xlink:href="#aD"/><use transform="matrix(0.08641975308641972,0,0,0.08641975308641972,25.839506172839503,0)" xlink:href="#aC"/><use transform="matrix(0.08641975308641972,0,0,0.08641975308641972,43.12345679012344,0)" xlink:href="#aB"/><use transform="matrix(0.08641975308641972,0,0,0.08641975308641972,51.765432098765416,0)" xlink:href="#aL"/><use transform="matrix(0.08641975308641972,0,0,0.08641975308641972,69.04938271604937,0)" xlink:href="#at"/><use transform="matrix(0.08641975308641972,0,0,0.08641975308641972,75.87654320987653,0)" xlink:href="#aA"/><use transform="matrix(0.08641975308641972,0,0,0.08641975308641972,93.16049382716048,0)" xlink:href="#aK"/></g><g id="Z"><use transform="matrix(0.08641975308641972,0,0,0.08641975308641972,0,0)" xlink:href="#aE"/><use transform="matrix(0.08641975308641972,0,0,0.08641975308641972,10.283950617283947,0)" xlink:href="#aC"/><use transform="matrix(0.08641975308641972,0,0,0.08641975308641972,27.56790123456789,0)" xlink:href="#aN"/><use transform="matrix(0.08641975308641972,0,0,0.08641975308641972,36.209876543209866,0)" xlink:href="#aC"/><use transform="matrix(0.08641975308641972,0,0,0.08641975308641972,53.49382716049381,0)" xlink:href="#aE"/><use transform="matrix(0.08641975308641972,0,0,0.08641975308641972,63.77777777777776,0)" xlink:href="#aC"/><use transform="matrix(0.08641975308641972,0,0,0.08641975308641972,81.0617283950617,0)" xlink:href="#as"/><use transform="matrix(0.08641975308641972,0,0,0.08641975308641972,98.34567901234566,0)" xlink:href="#aF"/><use transform="matrix(0.08641975308641972,0,0,0.08641975308641972,113.90123456790121,0)" xlink:href="#aC"/></g><g id="aa"><use transform="matrix(0.08641975308641972,0,0,0.08641975308641972,0,0)" xlink:href="#aD"/><use transform="matrix(0.08641975308641972,0,0,0.08641975308641972,15.55555555555555,0)" xlink:href="#aC"/><use transform="matrix(0.08641975308641972,0,0,0.08641975308641972,32.83950617283949,0)" xlink:href="#aB"/><use transform="matrix(0.08641975308641972,0,0,0.08641975308641972,41.48148148148147,0)" xlink:href="#ax"/><use transform="matrix(0.08641975308641972,0,0,0.08641975308641972,57.03703703703702,0)" xlink:href="#aH"/><use transform="matrix(0.08641975308641972,0,0,0.08641975308641972,67.32098765432096,0)" xlink:href="#at"/><use transform="matrix(0.08641975308641972,0,0,0.08641975308641972,74.14814814814812,0)" xlink:href="#aA"/><use transform="matrix(0.08641975308641972,0,0,0.08641975308641972,91.43209876543206,0)" xlink:href="#aK"/></g><g id="ab"><use transform="matrix(0.08641975308641972,0,0,0.08641975308641972,0,0)" xlink:href="#aH"/><use transform="matrix(0.08641975308641972,0,0,0.08641975308641972,10.283950617283947,0)" xlink:href="#ax"/><use transform="matrix(0.08641975308641972,0,0,0.08641975308641972,25.839506172839503,0)" xlink:href="#aP"/><use transform="matrix(0.08641975308641972,0,0,0.08641975308641972,43.12345679012344,0)" xlink:href="#aC"/><use transform="matrix(0.08641975308641972,0,0,0.08641975308641972,60.4074074074074,0)" xlink:href="#aF"/><use transform="matrix(0.08641975308641972,0,0,0.08641975308641972,75.96296296296293,0)" xlink:href="#at"/><use transform="matrix(0.08641975308641972,0,0,0.08641975308641972,82.7901234567901,0)" xlink:href="#aC"/><use transform="matrix(0.08641975308641972,0,0,0.08641975308641972,100.07407407407406,0)" xlink:href="#ax"/><use transform="matrix(0.08641975308641972,0,0,0.08641975308641972,115.62962962962959,0)" xlink:href="#aL"/><use transform="matrix(0.08641975308641972,0,0,0.08641975308641972,132.91358024691354,0)" xlink:href="#at"/><use transform="matrix(0.08641975308641972,0,0,0.08641975308641972,139.7407407407407,0)" xlink:href="#aA"/><use transform="matrix(0.08641975308641972,0,0,0.08641975308641972,157.02469135802465,0)" xlink:href="#aK"/></g><path fill="#3a414a" d="M108 0H70L1-190h34L89-25l56-165h34" id="ba"/><path fill="#3a414a" d="M24-231v-30h32v30H24zM24 0v-190h32V0H24" id="bb"/><path fill="#3a414a" d="M135-143c-3-34-86-38-87 0 15 53 115 12 119 90S17 21 10-45l28-5c4 36 97 45 98 0-10-56-113-15-118-90-4-57 82-63 122-42 12 7 21 19 24 35" id="bc"/><path fill="#3a414a" d="M59-47c-2 24 18 29 38 22v24C64 9 27 4 27-40v-127H5v-23h24l9-43h21v43h35v23H59v120" id="bd"/><g id="ac"><use transform="matrix(0.08641975308641972,0,0,0.08641975308641972,0,0)" xlink:href="#ba"/><use transform="matrix(0.08641975308641972,0,0,0.08641975308641972,15.55555555555555,0)" xlink:href="#bb"/><use transform="matrix(0.08641975308641972,0,0,0.08641975308641972,22.382716049382708,0)" xlink:href="#bc"/><use transform="matrix(0.08641975308641972,0,0,0.08641975308641972,37.93827160493826,0)" xlink:href="#bb"/><use transform="matrix(0.08641975308641972,0,0,0.08641975308641972,44.765432098765416,0)" xlink:href="#bd"/><use transform="matrix(0.08641975308641972,0,0,0.08641975308641972,53.40740740740739,0)" xlink:href="#bc"/></g><path fill="#3a414a" d="M141-36C126-15 110 5 73 4 37 3 15-17 15-53c-1-64 63-63 125-63 3-35-9-54-41-54-24 1-41 7-42 31l-33-3c5-37 33-52 76-52 45 0 72 20 72 64v82c-1 20 7 32 28 27v20c-31 9-61-2-59-35zM48-53c0 20 12 33 32 33 41-3 63-29 60-74-43 2-92-5-92 41" id="be"/><path fill="#3a414a" d="M117-194c89-4 53 116 60 194h-32v-121c0-31-8-49-39-48C34-167 62-67 57 0H25l-1-190h30c1 10-1 24 2 32 11-22 29-35 61-36" id="bf"/><path fill="#3a414a" d="M210-169c-67 3-38 105-44 169h-31v-121c0-29-5-50-35-48C34-165 62-65 56 0H25l-1-190h30c1 10-1 24 2 32 10-44 99-50 107 0 11-21 27-35 58-36 85-2 47 119 55 194h-31v-121c0-29-5-49-35-48" id="bg"/><path fill="#3a414a" d="M24 0v-261h32V0H24" id="bh"/><path fill="#3a414a" d="M-5 72V49h209v23H-5" id="bi"/><path fill="#3a414a" d="M85-194c31 0 48 13 60 33l-1-100h32l1 261h-30c-2-10 0-23-3-31C134-8 116 4 85 4 32 4 16-35 15-94c0-66 23-100 70-100zm9 24c-40 0-46 34-46 75 0 40 6 74 45 74 42 0 51-32 51-76 0-42-9-74-50-73" id="bj"/><g id="ae"><use transform="matrix(0.08641975308641972,0,0,0.08641975308641972,0,0)" xlink:href="#be"/><use transform="matrix(0.08641975308641972,0,0,0.08641975308641972,17.283950617283946,0)" xlink:href="#bf"/><use transform="matrix(0.08641975308641972,0,0,0.08641975308641972,34.56790123456789,0)" xlink:href="#bb"/><use transform="matrix(0.08641975308641972,0,0,0.08641975308641972,41.39506172839505,0)" xlink:href="#bg"/><use transform="matrix(0.08641975308641972,0,0,0.08641975308641972,67.23456790123454,0)" xlink:href="#be"/><use transform="matrix(0.08641975308641972,0,0,0.08641975308641972,84.51851851851849,0)" xlink:href="#bh"/><use transform="matrix(0.08641975308641972,0,0,0.08641975308641972,91.34567901234564,0)" xlink:href="#bi"/><use transform="matrix(0.08641975308641972,0,0,0.08641975308641972,108.62962962962959,0)" xlink:href="#bb"/><use transform="matrix(0.08641975308641972,0,0,0.08641975308641972,115.45679012345674,0)" xlink:href="#bj"/></g><g id="af"><use transform="matrix(0.08641975308641972,0,0,0.08641975308641972,0,0)" xlink:href="#bb"/><use transform="matrix(0.08641975308641972,0,0,0.08641975308641972,6.827160493827158,0)" xlink:href="#bf"/><use transform="matrix(0.08641975308641972,0,0,0.08641975308641972,24.111111111111104,0)" xlink:href="#bd"/></g><path fill="#3a414a" d="M100-194c63 0 86 42 84 106H49c0 40 14 67 53 68 26 1 43-12 49-29l28 8c-11 28-37 45-77 45C44 4 14-33 15-96c1-61 26-98 85-98zm52 81c6-60-76-77-97-28-3 7-6 17-6 28h103" id="bk"/><g id="ah"><use transform="matrix(0.08641975308641972,0,0,0.08641975308641972,0,0)" xlink:href="#ba"/><use transform="matrix(0.08641975308641972,0,0,0.08641975308641972,15.55555555555555,0)" xlink:href="#bk"/><use transform="matrix(0.08641975308641972,0,0,0.08641975308641972,32.83950617283949,0)" xlink:href="#bd"/><use transform="matrix(0.08641975308641972,0,0,0.08641975308641972,41.48148148148147,0)" xlink:href="#bi"/><use transform="matrix(0.08641975308641972,0,0,0.08641975308641972,58.76543209876542,0)" xlink:href="#bb"/><use transform="matrix(0.08641975308641972,0,0,0.08641975308641972,65.59259259259258,0)" xlink:href="#bj"/></g><g id="ai"><use transform="matrix(0.08641975308641972,0,0,0.08641975308641972,0,0)" xlink:href="#ba"/><use transform="matrix(0.08641975308641972,0,0,0.08641975308641972,15.55555555555555,0)" xlink:href="#bb"/><use transform="matrix(0.08641975308641972,0,0,0.08641975308641972,22.382716049382708,0)" xlink:href="#bc"/><use transform="matrix(0.08641975308641972,0,0,0.08641975308641972,37.93827160493826,0)" xlink:href="#bb"/><use transform="matrix(0.08641975308641972,0,0,0.08641975308641972,44.765432098765416,0)" xlink:href="#bd"/><use transform="matrix(0.08641975308641972,0,0,0.08641975308641972,53.40740740740739,0)" xlink:href="#bi"/><use transform="matrix(0.08641975308641972,0,0,0.08641975308641972,70.69135802469134,0)" xlink:href="#bj"/><use transform="matrix(0.08641975308641972,0,0,0.08641975308641972,87.97530864197529,0)" xlink:href="#be"/><use transform="matrix(0.08641975308641972,0,0,0.08641975308641972,105.25925925925924,0)" xlink:href="#bd"/><use transform="matrix(0.08641975308641972,0,0,0.08641975308641972,113.90123456790121,0)" xlink:href="#bk"/></g><g id="aj"><use transform="matrix(0.08641975308641972,0,0,0.08641975308641972,0,0)" xlink:href="#bj"/><use transform="matrix(0.08641975308641972,0,0,0.08641975308641972,17.283950617283946,0)" xlink:href="#be"/><use transform="matrix(0.08641975308641972,0,0,0.08641975308641972,34.56790123456789,0)" xlink:href="#bd"/><use transform="matrix(0.08641975308641972,0,0,0.08641975308641972,43.209876543209866,0)" xlink:href="#bk"/></g><path fill="#3a414a" d="M63-220v92h138v28H63V0H30v-248h175v28H63" id="bl"/><path fill="#3a414a" d="M194 0L95-120 63-95V0H30v-248h33v124l119-124h40L117-140 236 0h-42" id="bm"/><g id="al"><use transform="matrix(0.08641975308641972,0,0,0.08641975308641972,0,0)" xlink:href="#bl"/><use transform="matrix(0.08641975308641972,0,0,0.08641975308641972,18.92592592592592,0)" xlink:href="#bm"/></g><path fill="#3a414a" d="M87 75C49 33 22-17 22-94c0-76 28-126 65-167h31c-38 41-64 92-64 168S80 34 118 75H87" id="bn"/><path fill="#3a414a" d="M33-261c38 41 65 92 65 168S71 34 33 75H2C39 34 66-17 66-93S39-220 2-261h31" id="bo"/><g id="am"><use transform="matrix(0.08641975308641972,0,0,0.08641975308641972,0,0)" xlink:href="#bn"/><use transform="matrix(0.08641975308641972,0,0,0.08641975308641972,10.283950617283947,0)" xlink:href="#be"/><use transform="matrix(0.08641975308641972,0,0,0.08641975308641972,27.56790123456789,0)" xlink:href="#bf"/><use transform="matrix(0.08641975308641972,0,0,0.08641975308641972,44.85185185185183,0)" xlink:href="#bb"/><use transform="matrix(0.08641975308641972,0,0,0.08641975308641972,51.67901234567899,0)" xlink:href="#bg"/><use transform="matrix(0.08641975308641972,0,0,0.08641975308641972,77.51851851851849,0)" xlink:href="#be"/><use transform="matrix(0.08641975308641972,0,0,0.08641975308641972,94.80246913580244,0)" xlink:href="#bh"/><use transform="matrix(0.08641975308641972,0,0,0.08641975308641972,101.62962962962959,0)" xlink:href="#bi"/><use transform="matrix(0.08641975308641972,0,0,0.08641975308641972,118.91358024691354,0)" xlink:href="#bb"/><use transform="matrix(0.08641975308641972,0,0,0.08641975308641972,125.74074074074072,0)" xlink:href="#bj"/><use transform="matrix(0.08641975308641972,0,0,0.08641975308641972,143.02469135802465,0)" xlink:href="#bo"/></g><path fill="#3a414a" d="M114-163C36-179 61-72 57 0H25l-1-190h30c1 12-1 29 2 39 6-27 23-49 58-41v29" id="bp"/><path fill="#3a414a" d="M101-234c-31-9-42 10-38 44h38v23H63V0H32v-167H5v-23h27c-7-52 17-82 69-68v24" id="bq"/><path fill="#3a414a" d="M96-169c-40 0-48 33-48 73s9 75 48 75c24 0 41-14 43-38l32 2c-6 37-31 61-74 61-59 0-76-41-82-99-10-93 101-131 147-64 4 7 5 14 7 22l-32 3c-4-21-16-35-41-35" id="br"/><g id="an"><use transform="matrix(0.08641975308641972,0,0,0.08641975308641972,0,0)" xlink:href="#bp"/><use transform="matrix(0.08641975308641972,0,0,0.08641975308641972,10.283950617283947,0)" xlink:href="#bk"/><use transform="matrix(0.08641975308641972,0,0,0.08641975308641972,27.56790123456789,0)" xlink:href="#bq"/><use transform="matrix(0.08641975308641972,0,0,0.08641975308641972,36.209876543209866,0)" xlink:href="#bk"/><use transform="matrix(0.08641975308641972,0,0,0.08641975308641972,53.49382716049381,0)" xlink:href="#bp"/><use transform="matrix(0.08641975308641972,0,0,0.08641975308641972,63.77777777777776,0)" xlink:href="#bk"/><use transform="matrix(0.08641975308641972,0,0,0.08641975308641972,81.0617283950617,0)" xlink:href="#bf"/><use transform="matrix(0.08641975308641972,0,0,0.08641975308641972,98.34567901234566,0)" xlink:href="#br"/><use transform="matrix(0.08641975308641972,0,0,0.08641975308641972,113.90123456790121,0)" xlink:href="#bk"/></g><g id="ao"><use transform="matrix(0.08641975308641972,0,0,0.08641975308641972,0,0)" xlink:href="#be"/><use transform="matrix(0.08641975308641972,0,0,0.08641975308641972,17.283950617283946,0)" xlink:href="#bf"/><use transform="matrix(0.08641975308641972,0,0,0.08641975308641972,34.56790123456789,0)" xlink:href="#bb"/><use transform="matrix(0.08641975308641972,0,0,0.08641975308641972,41.39506172839505,0)" xlink:href="#bg"/><use transform="matrix(0.08641975308641972,0,0,0.08641975308641972,67.23456790123454,0)" xlink:href="#be"/><use transform="matrix(0.08641975308641972,0,0,0.08641975308641972,84.51851851851849,0)" xlink:href="#bh"/><use transform="matrix(0.08641975308641972,0,0,0.08641975308641972,91.34567901234564,0)" xlink:href="#bc"/><use transform="matrix(0.08641975308641972,0,0,0.08641975308641972,106.90123456790117,0)" xlink:href="#bn"/><use transform="matrix(0.08641975308641972,0,0,0.08641975308641972,117.18518518518515,0)" xlink:href="#bb"/><use transform="matrix(0.08641975308641972,0,0,0.08641975308641972,124.0123456790123,0)" xlink:href="#bj"/><use transform="matrix(0.08641975308641972,0,0,0.08641975308641972,141.29629629629625,0)" xlink:href="#bo"/></g><g id="aq"><use transform="matrix(0.08641975308641972,0,0,0.08641975308641972,0,0)" xlink:href="#aH"/><use transform="matrix(0.08641975308641972,0,0,0.08641975308641972,10.283950617283947,0)" xlink:href="#aD"/><use transform="matrix(0.08641975308641972,0,0,0.08641975308641972,25.839506172839503,0)" xlink:href="#aC"/><use transform="matrix(0.08641975308641972,0,0,0.08641975308641972,43.12345679012344,0)" xlink:href="#aB"/><use transform="matrix(0.08641975308641972,0,0,0.08641975308641972,51.765432098765416,0)" xlink:href="#aL"/><use transform="matrix(0.08641975308641972,0,0,0.08641975308641972,69.04938271604937,0)" xlink:href="#at"/><use transform="matrix(0.08641975308641972,0,0,0.08641975308641972,75.87654320987653,0)" xlink:href="#aA"/><use transform="matrix(0.08641975308641972,0,0,0.08641975308641972,93.16049382716048,0)" xlink:href="#aK"/></g></defs></g></svg>